<?xml version="1.0" standalone="no"?>
<!DOCTYPE svg PUBLIC "-//W3C//DTD SVG 20010904//EN"
 "http://www.w3.org/TR/2001/REC-SVG-20010904/DTD/svg10.dtd">
<svg version="1.0" xmlns="http://www.w3.org/2000/svg"
 width="70.000000pt" height="70.000000pt" viewBox="0 0 70.000000 70.000000"
 preserveAspectRatio="xMidYMid meet">
<metadata>
Created by potrace 1.11, written by Peter Selinger 2001-2013
</metadata>
<g transform="translate(0.000000,70.000000) scale(0.100000,-0.100000)"
fill="#000000" stroke="none">
<path d="M523 553 c-68 -16 -118 -56 -128 -104 -9 -42 -1 -46 37 -18 18 14 45
33 61 42 51 33 27 8 -48 -49 -42 -31 -73 -59 -70 -62 3 -3 11 0 17 6 7 7 29
12 50 12 74 0 127 45 156 131 21 64 22 63 -75 42z"/>
<path d="M105 539 c16 -55 52 -115 81 -134 17 -12 50 -22 74 -23 24 -2 52 -8
62 -13 42 -22 25 0 -26 35 -29 20 -62 46 -72 58 -23 26 -4 17 49 -25 50 -39
64 -25 34 33 -28 56 -67 79 -147 87 -62 6 -62 6 -55 -18z"/>
<path d="M360 332 c0 -4 32 -32 70 -62 89 -67 102 -86 22 -31 -34 22 -63 41
-66 41 -11 0 -6 -32 9 -64 20 -41 65 -67 143 -82 l63 -12 -6 32 c-20 95 -75
153 -150 157 -22 1 -50 8 -62 16 -13 7 -23 10 -23 5z"/>
<path d="M312 321 c-7 -4 -31 -8 -54 -9 -65 -3 -99 -29 -135 -102 -32 -63 -36
-87 -16 -83 6 1 32 5 59 9 79 10 121 39 144 98 19 51 -3 53 -67 6 -40 -30 -50
-35 -33 -16 13 15 48 43 77 62 29 19 53 37 53 40 0 7 -14 5 -28 -5z"/>
</g>
</svg>
